# Blender 5.1.2
# www.blender.org
mtllib cat.mtl
o Sphere
v 0.000000 4.838063 0.000000
v 0.000000 4.616421 -0.581627
v 0.000000 4.081329 -0.864866
v 0.000000 3.546237 -0.707107
v 0.000000 3.324595 0.000000
v 0.326044 4.616421 -0.500000
v 0.461096 4.081329 -0.707107
v 0.326044 3.546237 -0.500000
v 0.461096 4.616421 0.000000
v 0.652088 4.081329 0.000000
v 0.461096 3.546237 0.000000
v -0.461096 4.616421 0.000000
v -0.652088 4.081329 0.000000
v -0.461096 3.546237 0.000000
v -0.326044 4.616421 -0.500000
v -0.461096 4.081329 -0.707107
v -0.326044 3.546237 -0.500000
v 0.000000 4.599920 -1.047535
v 0.000000 4.616421 0.581627
v 0.000000 4.081329 0.864866
v 0.000000 3.546237 0.707107
v 0.326044 4.616421 0.500000
v 0.461096 4.081329 0.707107
v 0.326044 3.546237 0.500000
v -0.326044 4.616421 0.500000
v -0.461096 4.081329 0.707107
v -0.326044 3.546237 0.500000
v 0.000000 4.599920 1.047535
vn 0.3954 -0.3407 -0.8530
vn 0.0888 0.9308 -0.3547
vn 0.1867 -0.9375 -0.2938
vn 0.4303 0.8952 -0.1162
vn 0.4303 -0.8952 -0.1162
vn 0.9127 0.3258 -0.2465
vn 0.9127 -0.3258 -0.2465
vn -0.9127 -0.3258 -0.2465
vn -0.4303 0.8952 -0.1162
vn -0.4303 -0.8952 -0.1162
vn -0.9127 0.3258 -0.2465
vn -0.3954 -0.3407 -0.8530
vn -0.0888 0.9308 -0.3547
vn -0.1867 -0.9375 -0.2938
vn 0.3071 -0.3162 -0.8976
vn 0.7879 0.3849 -0.4807
vn 0.0089 0.9993 -0.0354
vn -0.0089 0.9993 -0.0354
vn -0.7879 0.3849 -0.4807
vn -0.3071 -0.3162 -0.8976
vn 0.3954 -0.3407 0.8530
vn 0.0888 0.9308 0.3547
vn 0.1867 -0.9375 0.2938
vn 0.4303 0.8952 0.1162
vn 0.4303 -0.8952 0.1162
vn 0.9127 0.3258 0.2465
vn 0.9127 -0.3258 0.2465
vn -0.9127 -0.3258 0.2465
vn -0.4303 0.8952 0.1162
vn -0.4303 -0.8952 0.1162
vn -0.9127 0.3258 0.2465
vn -0.3954 -0.3407 0.8530
vn -0.0888 0.9308 0.3547
vn -0.1867 -0.9375 0.2938
vn 0.3071 -0.3162 0.8976
vn 0.7879 0.3849 0.4807
vn 0.0089 0.9993 0.0354
vn -0.0089 0.9993 0.0354
vn -0.7879 0.3849 0.4807
vn -0.3071 -0.3162 0.8976
vt 0.937867 0.301300
vt 0.769886 0.625401
vt 0.721781 0.578049
vt 0.786117 0.299786
vt 0.699364 0.822422
vt 0.516253 0.760496
vt 0.612649 0.744851
vt 0.513575 0.046315
vt 0.503159 0.707639
vt 0.495974 0.364296
vt 0.503072 0.552512
vt 0.956042 0.610697
vt 0.993386 0.719795
vt 0.884790 0.728556
vt 0.883485 0.630219
vt 0.974350 0.841378
vt 0.912592 0.950631
vt 0.889866 0.833077
vt 0.883001 0.523831
vt 0.782324 0.717446
vt 0.810510 0.611291
vt 0.829536 0.883423
vt 0.764375 0.833206
vt 0.773585 0.831357
s 0
usemtl Material.001
f 4/1/1 3/2/1 7/3/1 8/4/1
f 2/5/2 1/6/2 6/7/2
f 5/8/3 4/1/3 8/4/3
f 6/7/4 1/6/4 9/9/4
f 5/8/5 8/4/5 11/10/5
f 7/3/6 6/7/6 9/9/6 10/11/6
f 8/4/7 7/3/7 10/11/7 11/10/7
f 14/12/8 13/13/8 16/14/8 17/15/8
f 12/16/9 1/17/9 15/18/9
f 5/19/10 14/12/10 17/15/10
f 13/13/11 12/16/11 15/18/11 16/14/11
f 17/15/12 16/14/12 3/20/12 4/21/12
f 15/18/13 1/17/13 2/22/13
f 5/19/14 17/15/14 4/21/14
f 3/2/15 18/23/15 7/3/15
f 7/3/16 18/23/16 6/7/16
f 2/5/17 6/7/17 18/23/17
f 2/22/18 18/24/18 15/18/18
f 16/14/19 15/18/19 18/24/19
f 3/20/20 16/14/20 18/24/20
f 21/1/21 24/4/21 23/3/21 20/2/21
f 19/5/22 22/7/22 1/6/22
f 5/8/23 24/4/23 21/1/23
f 22/7/24 9/9/24 1/6/24
f 5/8/25 11/10/25 24/4/25
f 23/3/26 10/11/26 9/9/26 22/7/26
f 24/4/27 11/10/27 10/11/27 23/3/27
f 14/12/28 27/15/28 26/14/28 13/13/28
f 12/16/29 25/18/29 1/17/29
f 5/19/30 27/15/30 14/12/30
f 13/13/31 26/14/31 25/18/31 12/16/31
f 27/15/32 21/21/32 20/20/32 26/14/32
f 25/18/33 19/22/33 1/17/33
f 5/19/34 21/21/34 27/15/34
f 20/2/35 23/3/35 28/23/35
f 23/3/36 22/7/36 28/23/36
f 19/5/37 28/23/37 22/7/37
f 19/22/38 25/18/38 28/24/38
f 26/14/39 28/24/39 25/18/39
f 20/20/40 28/24/40 26/14/40
o Cube
v -0.258278 3.517571 -0.401704
v -0.258278 1.517571 -0.528354
v 0.246192 3.517571 -0.401704
v 0.246192 1.517571 -0.528354
v -0.343173 2.905857 -0.401704
v 0.331088 2.905857 -0.401704
v -0.156380 1.517571 -0.000000
v 0.348089 1.517571 -0.000000
v 0.138913 2.518074 -0.710595
v 0.138913 2.772377 -0.997042
v -0.150999 2.772377 -0.997042
v -0.150999 2.518074 -0.710595
v -0.229008 0.685463 -0.525135
v 0.216923 0.685463 -0.525135
v -0.229008 0.685463 -0.168062
v 0.216923 0.685463 -0.168062
v -0.300725 2.211714 -0.401704
v 0.288640 2.211714 -0.401704
v -0.399099 1.864643 -0.237659
v -0.300725 2.211714 -0.000000
v -0.350607 1.864643 -0.000000
v 0.138913 1.927176 -0.924674
v 0.138913 2.057843 -1.251031
v -0.150999 2.057843 -1.251031
v -0.150999 1.927176 -0.924674
v 0.138913 1.860328 -1.138207
v -0.150999 1.860328 -1.138207
v -0.258278 3.517571 0.000000
v 0.246192 3.517571 0.000000
v 0.331088 2.905857 0.000000
v -0.343173 2.905857 0.000000
v 0.288640 2.211714 -0.000000
v -0.129632 -0.006913 -0.445561
v 0.117547 -0.006913 -0.445561
v -0.129632 -0.006913 -0.247636
v 0.117547 -0.006913 -0.247636
v -0.258278 3.517571 0.401704
v -0.258278 1.517571 0.528354
v 0.246192 3.517571 0.401704
v 0.246192 1.517571 0.528354
v -0.343173 2.905857 0.401704
v 0.331088 2.905857 0.401704
v 0.138913 2.518074 0.710595
v 0.138913 2.772377 0.997042
v -0.150999 2.772377 0.997042
v -0.150999 2.518074 0.710595
v -0.229008 0.685463 0.525134
v 0.216923 0.685463 0.525134
v -0.229008 0.685463 0.168062
v 0.216923 0.685463 0.168062
v -0.300725 2.211714 0.401704
v 0.288640 2.211714 0.401704
v -0.399099 1.864643 0.237659
v 0.138913 1.927176 0.924673
v 0.138913 2.057843 1.251031
v -0.150999 2.057843 1.251031
v -0.150999 1.927176 0.924673
v 0.138913 1.860328 1.138207
v -0.150999 1.860328 1.138207
v -0.129632 -0.006913 0.445560
v 0.117547 -0.006913 0.445560
v -0.129632 -0.006913 0.247635
v 0.117547 -0.006913 0.247635
vn -0.9933 0.0146 0.1143
vn 0.9905 0.1375 -0.0000
vn -0.0000 -0.0000 -1.0000
vn -0.0000 1.0000 -0.0000
vn -0.0000 0.3349 -0.9422
vn 0.9521 -0.0077 -0.3056
vn -0.9521 -0.0077 -0.3056
vn -0.0000 0.6242 -0.7813
vn -0.0000 -0.6231 0.7822
vn 0.9899 -0.1421 -0.0000
vn -0.0000 -0.1980 0.9802
vn 0.9899 -0.0841 -0.1139
vn -0.0000 -0.0039 -1.0000
vn -0.9905 0.1375 -0.0000
vn 0.9938 0.0221 -0.1089
vn -0.8846 0.0308 -0.4653
vn -0.9716 0.2249 0.0737
vn -0.0000 0.1795 -0.9838
vn -0.0000 -0.4960 -0.8683
vn 1.0000 -0.0000 -0.0000
vn -0.0000 -0.3406 0.9402
vn -1.0000 -0.0000 -0.0000
vn -0.0000 -0.9543 0.2988
vn 0.9981 -0.0610 -0.0000
vn -0.9981 -0.0610 -0.0000
vn -0.0000 -1.0000 -0.0000
vn -0.0000 -0.1142 -0.9935
vn -0.0000 -0.1142 0.9935
vn -0.9899 -0.1421 -0.0000
vn -0.8582 -0.4848 0.1685
vn -0.9933 0.0146 -0.1143
vn -0.0000 -0.0000 1.0000
vn -0.0000 0.3349 0.9422
vn 0.9521 -0.0077 0.3056
vn -0.9521 -0.0077 0.3056
vn -0.0000 0.6242 0.7813
vn -0.0000 -0.6231 -0.7822
vn -0.0000 -0.1980 -0.9802
vn 0.9899 -0.0841 0.1139
vn -0.0000 -0.0039 1.0000
vn 0.9938 0.0221 0.1089
vn -0.8846 0.0308 0.4653
vn -0.9716 0.2249 -0.0737
vn -0.0000 0.1795 0.9838
vn -0.0000 -0.4960 0.8683
vn -0.0000 -0.3406 -0.9402
vn -0.0000 -0.9543 -0.2988
vn -0.8582 -0.4848 -0.1685
vt 0.074363 0.219109
vt 0.122538 0.213385
vt 0.130118 0.284038
vt 0.100438 0.287993
vt 0.170555 0.289461
vt 0.206329 0.288882
vt 0.207219 0.343882
vt 0.171445 0.344461
vt 0.166657 0.146614
vt 0.112145 0.150354
vt 0.108224 0.085408
vt 0.168349 0.084175
vt 0.276524 0.199363
vt 0.312303 0.199363
vt 0.312303 0.244295
vt 0.276524 0.244295
vt 0.283404 0.115632
vt 0.258481 0.115265
vt 0.257849 0.049148
vt 0.284260 0.049159
vt 0.247827 0.199363
vt 0.216469 0.152158
vt 0.226845 0.105039
vt 0.325383 0.152406
vt 0.294250 0.199363
vt 0.315102 0.105425
vt 0.216469 0.199363
vt 0.276524 0.199363
vt 0.259408 0.243521
vt 0.233586 0.243521
vt 0.216469 0.090821
vt 0.184665 0.090698
vt 0.191994 0.028426
vt 0.209622 0.028494
vt 0.031575 0.231715
vt 0.063924 0.300478
vt 0.216469 0.164982
vt 0.168349 0.165487
vt 0.167823 0.210399
vt 0.168349 0.284961
vt 0.068425 0.030205
vt 0.105489 0.028426
vt 0.071160 0.087187
vt 0.205327 0.226949
vt 0.169552 0.227528
vt 0.095719 0.182402
vt 0.074239 0.151354
vt 0.074800 0.183195
vt 0.257857 0.028426
vt 0.284269 0.028436
vt 0.226204 0.048455
vt 0.242091 0.036066
vt 0.259408 0.299499
vt 0.233586 0.299499
vt 0.316032 0.048623
vt 0.300146 0.036105
vt 0.259408 0.319428
vt 0.233586 0.319428
vt 0.115438 0.346934
vt 0.132900 0.344434
vt 0.136021 0.366242
vt 0.118559 0.368741
vt 0.154824 0.346105
vt 0.094945 0.355215
s 0
usemtl Material.001
f 35/25/41 30/26/41 41/27/41 43/28/41
f 58/29/42 34/30/42 31/31/42 57/32/42
f 46/33/43 45/34/43 33/35/43 34/36/43
f 57/37/44 31/38/44 29/39/44 56/40/44
f 39/41/45 38/42/45 51/43/45 52/44/45
f 31/45/46 34/46/46 37/47/46 38/42/46
f 33/48/47 29/49/47 39/41/47 40/50/47
f 29/49/48 31/45/48 38/42/48 39/41/48
f 34/51/49 33/52/49 40/53/49 37/54/49
f 42/55/50 44/56/50 64/57/50 62/58/50
f 36/59/51 35/25/51 43/28/51 44/60/51
f 32/61/52 36/62/52 44/56/52 42/55/52
f 30/26/53 32/63/53 42/64/53 41/27/53
f 56/65/54 29/66/54 33/35/54 59/67/54
f 32/61/55 46/68/55 60/69/55 36/62/55
f 30/26/56 47/70/56 45/34/56
f 48/71/57 45/34/57 47/70/57 49/72/57
f 32/63/58 30/26/58 45/34/58 46/33/58
f 54/73/59 55/74/59 52/44/59 51/43/59
f 51/43/60 50/75/60 54/76/60
f 37/54/61 40/53/61 53/77/61 50/78/61
f 53/79/62 52/44/62 55/80/62
f 50/78/63 53/77/63 55/81/63 54/82/63
f 38/42/60 37/47/60 50/75/60 51/43/60
f 40/50/62 39/41/62 52/44/62 53/79/62
f 34/30/64 58/29/64 60/69/64 46/68/64
f 59/67/65 33/35/65 45/34/65 48/71/65
f 63/83/66 61/84/66 62/85/66 64/86/66
f 41/27/67 42/64/67 62/87/67 61/84/67
f 44/60/68 43/28/68 63/83/68 64/88/68
f 43/28/69 41/27/69 61/84/69 63/83/69
f 49/72/70 47/70/70 30/26/70 35/25/70
f 35/25/71 77/28/71 75/27/71 66/26/71
f 58/29/42 57/32/42 67/31/42 70/30/42
f 80/33/72 70/36/72 69/35/72 79/34/72
f 57/37/44 56/40/44 65/39/44 67/38/44
f 73/41/73 84/44/73 83/43/73 72/42/73
f 67/45/74 72/42/74 71/47/74 70/46/74
f 69/48/75 74/50/75 73/41/75 65/49/75
f 65/49/76 73/41/76 72/42/76 67/45/76
f 70/51/77 71/54/77 74/53/77 69/52/77
f 76/55/50 89/58/50 91/57/50 78/56/50
f 36/59/78 78/60/78 77/28/78 35/25/78
f 68/61/79 76/55/79 78/56/79 36/62/79
f 66/26/80 75/27/80 76/64/80 68/63/80
f 56/65/54 59/67/54 69/35/54 65/66/54
f 68/61/81 36/62/81 60/69/81 80/68/81
f 66/26/82 79/34/82 81/70/82
f 48/71/83 49/72/83 81/70/83 79/34/83
f 68/63/84 80/33/84 79/34/84 66/26/84
f 86/73/85 83/43/85 84/44/85 87/74/85
f 83/43/60 86/76/60 82/75/60
f 71/54/86 82/78/86 85/77/86 74/53/86
f 85/79/62 87/80/62 84/44/62
f 82/78/87 86/82/87 87/81/87 85/77/87
f 72/42/60 83/43/60 82/75/60 71/47/60
f 74/50/62 85/79/62 84/44/62 73/41/62
f 70/30/64 80/68/64 60/69/64 58/29/64
f 59/67/65 48/71/65 79/34/65 69/35/65
f 90/83/66 91/86/66 89/85/66 88/84/66
f 75/27/68 88/84/68 89/87/68 76/64/68
f 78/60/67 91/88/67 90/83/67 77/28/67
f 77/28/69 90/83/69 88/84/69 75/27/69
f 49/72/88 35/25/88 66/26/88 81/70/88
o Cube.001
v -0.507747 1.601832 0.096149
v -0.667184 1.709342 0.096149
v -0.507747 1.601832 -0.096149
v -0.667184 1.709342 -0.096149
v -0.172285 1.816393 0.096149
v -0.172285 2.008692 0.096149
v -0.172285 1.816393 -0.096149
v -0.172285 2.008692 -0.096149
v -0.781689 1.172091 0.096149
v -0.971660 1.201919 0.096149
v -0.781689 1.172091 -0.096149
v -0.971660 1.201919 -0.096149
v -0.865850 0.459438 0.096149
v -1.058110 0.463264 0.096149
v -0.865850 0.459438 -0.096149
v -1.058110 0.463264 -0.096149
vn -0.0000 -0.0000 -1.0000
vn 1.0000 -0.0000 -0.0000
vn -0.0000 -0.0000 1.0000
vn 0.5388 -0.8424 -0.0000
vn -0.5176 0.8556 -0.0000
vn -0.9932 0.1162 -0.0000
vn -0.8575 0.5145 -0.0000
vn 0.8432 -0.5375 -0.0000
vn -0.0199 -0.9998 -0.0000
vn 0.9931 -0.1173 -0.0000
vt 0.194745 0.234245
vt 0.193036 0.201507
vt 0.286726 0.198398
vt 0.290078 0.230716
vt 0.144438 0.239819
vt 0.148006 0.200236
vt 0.110892 0.201893
vt 0.109235 0.164779
vt 0.146349 0.163122
vt 0.143543 0.129866
vt 0.189599 0.130627
vt 0.191828 0.158781
vt 0.194768 0.275082
vt 0.143346 0.280537
vt 0.288977 0.268322
vt 0.445965 0.229192
vt 0.447352 0.271905
vt 0.284507 0.124307
vt 0.285410 0.156243
vt 0.443106 0.152056
vt 0.478247 0.152744
vt 0.479368 0.193903
vt 0.444228 0.193216
vt 0.446993 0.112135
s 0
usemtl Material.001
f 95/89/89 94/90/89 102/91/89 103/92/89
f 94/90/89 95/89/89 99/93/89 98/94/89
f 98/94/90 99/95/90 97/96/90 96/97/90
f 96/97/91 97/98/91 93/99/91 92/100/91
f 94/90/92 98/94/92 96/97/92 92/100/92
f 99/93/93 95/89/93 93/101/93 97/102/93
f 101/103/94 103/92/94 107/104/94 105/105/94
f 92/100/91 93/99/91 101/106/91 100/107/91
f 93/101/95 95/89/95 103/92/95 101/103/95
f 94/90/96 92/100/96 100/107/96 102/91/96
f 104/108/97 105/109/97 107/110/97 106/111/97
f 102/91/98 100/107/98 104/108/98 106/111/98
f 103/92/89 102/91/89 106/111/89 107/104/89
f 100/107/91 101/106/91 105/112/91 104/108/91
